<mxfile host="Electron" modified="2023-11-25T17:28:19.864Z" agent="Mozilla/5.0 (Windows NT 10.0; Win64; x64) AppleWebKit/537.36 (KHTML, like Gecko) draw.io/22.1.2 Chrome/114.0.5735.289 Electron/25.9.4 Safari/537.36" etag="tjFreqX8nPvf1RUHSvIb" version="22.1.2" type="device">
  <diagram name="Page-1" id="b5b7bab2-c9e2-2cf4-8b2a-24fd1a2a6d21">
    <mxGraphModel dx="1005" dy="674" grid="1" gridSize="10" guides="1" tooltips="1" connect="1" arrows="1" fold="1" page="1" pageScale="1" pageWidth="827" pageHeight="1169" background="none" math="0" shadow="0">
      <root>
        <mxCell id="0" />
        <mxCell id="1" parent="0" />
        <mxCell id="1gQPPxU2DckSaq4Z7TEX-1" value="&lt;b&gt;Deployment Diagram&lt;/b&gt; [Инфраструктура разработки]" style="shape=umlFrame;whiteSpace=wrap;html=1;pointerEvents=0;recursiveResize=0;container=1;collapsible=0;width=310;height=20;" vertex="1" parent="1">
          <mxGeometry x="10" y="70" width="790" height="370" as="geometry" />
        </mxCell>
        <mxCell id="1gQPPxU2DckSaq4Z7TEX-4" value="«component»&lt;br&gt;&lt;b&gt;Web-браузер&lt;/b&gt;" style="html=1;dropTarget=0;whiteSpace=wrap;" vertex="1" parent="1gQPPxU2DckSaq4Z7TEX-1">
          <mxGeometry x="610.5" y="48.5" width="150" height="60" as="geometry" />
        </mxCell>
        <mxCell id="1gQPPxU2DckSaq4Z7TEX-5" value="" style="shape=module;jettyWidth=8;jettyHeight=4;" vertex="1" parent="1gQPPxU2DckSaq4Z7TEX-4">
          <mxGeometry x="1" width="20" height="20" relative="1" as="geometry">
            <mxPoint x="-27" y="7" as="offset" />
          </mxGeometry>
        </mxCell>
        <mxCell id="1gQPPxU2DckSaq4Z7TEX-2" value="&lt;b&gt;Рабочая станция&lt;/b&gt;" style="verticalAlign=top;align=left;shape=cube;size=10;direction=south;fontStyle=0;html=1;boundedLbl=1;spacingLeft=5;whiteSpace=wrap;" vertex="1" parent="1gQPPxU2DckSaq4Z7TEX-1">
          <mxGeometry x="500.5" y="203.5" width="170" height="110" as="geometry" />
        </mxCell>
        <mxCell id="1gQPPxU2DckSaq4Z7TEX-6" value="&lt;b&gt;Chrome/Mozilla&lt;/b&gt;" style="shape=note2;boundedLbl=1;whiteSpace=wrap;html=1;size=25;verticalAlign=top;align=center;" vertex="1" parent="1gQPPxU2DckSaq4Z7TEX-1">
          <mxGeometry x="525.5" y="243.5" width="120" height="60" as="geometry" />
        </mxCell>
        <mxCell id="1gQPPxU2DckSaq4Z7TEX-7" value="&lt;&lt;Executable&gt;&gt;" style="resizeWidth=1;part=1;strokeColor=none;fillColor=none;align=left;spacingLeft=5;" vertex="1" parent="1gQPPxU2DckSaq4Z7TEX-6">
          <mxGeometry width="120" height="25" relative="1" as="geometry" />
        </mxCell>
        <mxCell id="1gQPPxU2DckSaq4Z7TEX-9" value="&amp;lt;&amp;lt;manifest&amp;gt;&amp;gt;" style="endArrow=none;startArrow=open;endFill=0;startFill=0;endSize=8;html=1;verticalAlign=bottom;dashed=1;labelBackgroundColor=none;dashPattern=10 10;rounded=0;entryX=0;entryY=0;entryDx=120;entryDy=42.5;exitX=0.5;exitY=1;exitDx=0;exitDy=0;entryPerimeter=0;" edge="1" parent="1gQPPxU2DckSaq4Z7TEX-1" source="1gQPPxU2DckSaq4Z7TEX-4" target="1gQPPxU2DckSaq4Z7TEX-6">
          <mxGeometry x="-0.4819" y="-35" width="160" relative="1" as="geometry">
            <mxPoint x="220.5" y="228.5" as="sourcePoint" />
            <mxPoint x="380.5" y="228.5" as="targetPoint" />
            <Array as="points">
              <mxPoint x="685.5" y="286.5" />
            </Array>
            <mxPoint as="offset" />
          </mxGeometry>
        </mxCell>
        <mxCell id="1gQPPxU2DckSaq4Z7TEX-15" value="" style="edgeStyle=orthogonalEdgeStyle;rounded=0;orthogonalLoop=1;jettySize=auto;html=1;entryX=0.931;entryY=0.993;entryDx=0;entryDy=0;entryPerimeter=0;endArrow=none;endFill=0;exitX=0.815;exitY=0.001;exitDx=0;exitDy=0;exitPerimeter=0;" edge="1" parent="1gQPPxU2DckSaq4Z7TEX-1" source="1gQPPxU2DckSaq4Z7TEX-12" target="1gQPPxU2DckSaq4Z7TEX-2">
          <mxGeometry relative="1" as="geometry">
            <mxPoint x="500.5" y="231.5" as="targetPoint" />
          </mxGeometry>
        </mxCell>
        <mxCell id="1gQPPxU2DckSaq4Z7TEX-12" value="&amp;lt;&amp;lt;execution environment&amp;gt;&amp;gt;&lt;br&gt;&lt;b&gt;OpenSearch сервер&lt;/b&gt;" style="verticalAlign=top;align=left;shape=cube;size=10;direction=south;fontStyle=0;html=1;boundedLbl=1;spacingLeft=5;whiteSpace=wrap;" vertex="1" parent="1gQPPxU2DckSaq4Z7TEX-1">
          <mxGeometry x="244.5" y="191.5" width="170" height="140" as="geometry" />
        </mxCell>
        <mxCell id="1gQPPxU2DckSaq4Z7TEX-13" value="&lt;b&gt;Server&lt;/b&gt;" style="shape=note2;boundedLbl=1;whiteSpace=wrap;html=1;size=25;verticalAlign=top;align=center;" vertex="1" parent="1gQPPxU2DckSaq4Z7TEX-1">
          <mxGeometry x="268.5" y="251.5" width="120" height="60" as="geometry" />
        </mxCell>
        <mxCell id="1gQPPxU2DckSaq4Z7TEX-14" value="&lt;&lt;artifact&gt;&gt;" style="resizeWidth=1;part=1;strokeColor=none;fillColor=none;align=left;spacingLeft=5;" vertex="1" parent="1gQPPxU2DckSaq4Z7TEX-13">
          <mxGeometry width="120" height="25" relative="1" as="geometry" />
        </mxCell>
        <mxCell id="1gQPPxU2DckSaq4Z7TEX-17" value="«component»&lt;br&gt;&lt;b&gt;Сервер OpenSearch Dashboards&lt;/b&gt;" style="html=1;dropTarget=0;whiteSpace=wrap;" vertex="1" parent="1gQPPxU2DckSaq4Z7TEX-1">
          <mxGeometry x="364.5" y="38.5" width="150" height="80" as="geometry" />
        </mxCell>
        <mxCell id="1gQPPxU2DckSaq4Z7TEX-18" value="" style="shape=module;jettyWidth=8;jettyHeight=4;" vertex="1" parent="1gQPPxU2DckSaq4Z7TEX-17">
          <mxGeometry x="1" width="20" height="20" relative="1" as="geometry">
            <mxPoint x="-27" y="7" as="offset" />
          </mxGeometry>
        </mxCell>
        <mxCell id="1gQPPxU2DckSaq4Z7TEX-19" value="&amp;lt;&amp;lt;manifest&amp;gt;&amp;gt;" style="endArrow=none;startArrow=open;endFill=0;startFill=0;endSize=8;html=1;verticalAlign=bottom;dashed=1;labelBackgroundColor=none;dashPattern=10 10;rounded=0;entryX=0;entryY=0;entryDx=120;entryDy=42.5;exitX=0.5;exitY=1;exitDx=0;exitDy=0;entryPerimeter=0;" edge="1" parent="1gQPPxU2DckSaq4Z7TEX-1" source="1gQPPxU2DckSaq4Z7TEX-17" target="1gQPPxU2DckSaq4Z7TEX-13">
          <mxGeometry x="-0.4819" y="-35" width="160" relative="1" as="geometry">
            <mxPoint x="695.5" y="118.5" as="sourcePoint" />
            <mxPoint x="655.5" y="296.5" as="targetPoint" />
            <Array as="points">
              <mxPoint x="440.5" y="294.5" />
            </Array>
            <mxPoint as="offset" />
          </mxGeometry>
        </mxCell>
        <mxCell id="1gQPPxU2DckSaq4Z7TEX-20" value="«component»&lt;br&gt;&lt;b&gt;OpenSearch&lt;/b&gt;" style="html=1;dropTarget=0;whiteSpace=wrap;" vertex="1" parent="1gQPPxU2DckSaq4Z7TEX-1">
          <mxGeometry x="29.5" y="48.5" width="150" height="60" as="geometry" />
        </mxCell>
        <mxCell id="1gQPPxU2DckSaq4Z7TEX-21" value="" style="shape=module;jettyWidth=8;jettyHeight=4;" vertex="1" parent="1gQPPxU2DckSaq4Z7TEX-20">
          <mxGeometry x="1" width="20" height="20" relative="1" as="geometry">
            <mxPoint x="-27" y="7" as="offset" />
          </mxGeometry>
        </mxCell>
        <mxCell id="1gQPPxU2DckSaq4Z7TEX-22" value="&lt;b&gt;OpenSearch&lt;/b&gt;" style="shape=note2;boundedLbl=1;whiteSpace=wrap;html=1;size=25;verticalAlign=top;align=center;" vertex="1" parent="1gQPPxU2DckSaq4Z7TEX-1">
          <mxGeometry x="44.5" y="225.5" width="120" height="60" as="geometry" />
        </mxCell>
        <mxCell id="1gQPPxU2DckSaq4Z7TEX-23" value="&lt;&lt;Executable&gt;&gt;" style="resizeWidth=1;part=1;strokeColor=none;fillColor=none;align=left;spacingLeft=5;" vertex="1" parent="1gQPPxU2DckSaq4Z7TEX-22">
          <mxGeometry width="120" height="25" relative="1" as="geometry" />
        </mxCell>
        <mxCell id="1gQPPxU2DckSaq4Z7TEX-24" value="&amp;lt;&amp;lt;deploy&amp;gt;&amp;gt;" style="endArrow=none;startArrow=open;endFill=0;startFill=0;endSize=8;html=1;verticalAlign=bottom;dashed=1;labelBackgroundColor=none;dashPattern=10 10;rounded=0;entryX=0;entryY=0;entryDx=120;entryDy=42.5;exitX=0;exitY=0;exitDx=75;exitDy=170;entryPerimeter=0;exitPerimeter=0;" edge="1" parent="1gQPPxU2DckSaq4Z7TEX-1" source="1gQPPxU2DckSaq4Z7TEX-12" target="1gQPPxU2DckSaq4Z7TEX-22">
          <mxGeometry width="160" relative="1" as="geometry">
            <mxPoint x="449.5" y="128.5" as="sourcePoint" />
            <mxPoint x="398.5" y="304.5" as="targetPoint" />
          </mxGeometry>
        </mxCell>
        <mxCell id="1gQPPxU2DckSaq4Z7TEX-25" value="&amp;lt;&amp;lt;manifest&amp;gt;&amp;gt;" style="endArrow=none;startArrow=open;endFill=0;startFill=0;endSize=8;html=1;verticalAlign=bottom;dashed=1;labelBackgroundColor=none;dashPattern=10 10;rounded=0;entryX=0.5;entryY=0;entryDx=0;entryDy=0;exitX=0.5;exitY=1;exitDx=0;exitDy=0;" edge="1" parent="1gQPPxU2DckSaq4Z7TEX-1" source="1gQPPxU2DckSaq4Z7TEX-20" target="1gQPPxU2DckSaq4Z7TEX-23">
          <mxGeometry x="0.0256" y="40" width="160" relative="1" as="geometry">
            <mxPoint x="449.5" y="128.5" as="sourcePoint" />
            <mxPoint x="398.5" y="304.5" as="targetPoint" />
            <mxPoint as="offset" />
          </mxGeometry>
        </mxCell>
      </root>
    </mxGraphModel>
  </diagram>
</mxfile>
